<?xml version="1.0" standalone="no"?>
<!DOCTYPE svg PUBLIC "-//W3C//DTD SVG 20010904//EN"
 "http://www.w3.org/TR/2001/REC-SVG-20010904/DTD/svg10.dtd">
<svg version="1.0" xmlns="http://www.w3.org/2000/svg"
 width="3500.000000pt" height="3500.000000pt" viewBox="0 0 3500.000000 3500.000000"
 preserveAspectRatio="xMidYMid meet">
<metadata>
Created by potrace 1.14, written by Peter Selinger 2001-2017
</metadata>
<g transform="translate(0.000000,3500.000000) scale(0.100000,-0.100000)"
fill="#000000" stroke="none">
<path d="M13076 29360 c11 -65 76 -324 114 -460 87 -302 208 -619 351 -919 38
-79 69 -147 69 -151 0 -5 3 -10 8 -12 4 -1 25 -39 47 -83 22 -43 57 -107 78
-142 20 -34 37 -65 37 -68 0 -2 16 -29 35 -59 19 -30 35 -57 35 -60 0 -2 16
-28 35 -57 19 -30 35 -57 35 -62 0 -4 -12 -12 -27 -18 -16 -5 -35 -12 -43 -16
-8 -3 -20 -7 -27 -9 -11 -2 -148 -51 -223 -79 -19 -8 -69 -25 -110 -40 -41
-15 -93 -34 -115 -43 -21 -9 -42 -17 -45 -17 -5 0 -62 -22 -95 -36 -11 -5 -45
-18 -75 -29 -30 -11 -64 -24 -75 -29 -11 -5 -58 -24 -105 -42 -47 -17 -103
-40 -125 -49 -47 -20 -78 -33 -85 -35 -3 -1 -22 -9 -44 -18 -21 -9 -40 -17
-42 -17 -2 0 -33 -13 -69 -30 -36 -16 -67 -30 -70 -30 -2 0 -36 -15 -77 -33
-40 -19 -131 -60 -203 -92 -71 -32 -141 -66 -155 -76 -14 -9 -36 -20 -50 -24
-24 -8 -377 -186 -470 -237 -25 -14 -85 -47 -135 -73 -49 -27 -107 -59 -128
-72 l-38 -24 -115 76 c-63 41 -119 75 -124 75 -6 0 -10 4 -10 8 0 5 -10 14
-22 21 -35 18 -332 220 -362 246 -6 6 -72 55 -146 110 -116 86 -432 335 -510
402 -14 12 -61 52 -105 89 -44 37 -82 70 -85 73 -3 3 -25 24 -50 45 -131 114
-245 220 -397 369 l-83 81 35 -99 c48 -135 127 -318 193 -445 30 -58 62 -118
70 -135 36 -71 264 -431 282 -445 3 -3 20 -25 37 -50 30 -43 128 -171 196
-255 93 -115 246 -283 400 -440 117 -119 126 -131 110 -143 -10 -7 -85 -59
-168 -115 -175 -120 -312 -215 -334 -233 -9 -7 -90 -68 -181 -136 -91 -67
-167 -125 -170 -128 -3 -3 -59 -48 -125 -100 -66 -52 -122 -97 -125 -100 -3
-3 -27 -23 -55 -45 -27 -22 -61 -50 -75 -61 -14 -12 -47 -41 -75 -64 -119 -99
-376 -325 -439 -385 -12 -11 -40 -37 -64 -57 l-42 -38 -37 21 c-21 12 -76 41
-122 66 -233 123 -649 389 -884 564 -43 33 -80 59 -83 59 -2 0 -12 6 -21 14
-10 8 -100 80 -201 160 -100 81 -195 157 -210 170 -267 230 -385 340 -611 570
-91 93 -173 176 -181 185 -67 73 -180 202 -200 229 -43 58 -47 40 -9 -45 10
-24 19 -47 19 -53 0 -5 14 -39 30 -75 17 -36 30 -68 30 -70 0 -12 150 -322
210 -434 97 -179 337 -558 422 -666 4 -5 40 -53 80 -105 39 -52 98 -129 132
-170 75 -91 99 -120 206 -241 76 -86 380 -393 461 -464 77 -69 158 -137 183
-154 12 -8 23 -18 26 -21 3 -4 32 -26 65 -51 69 -51 85 -65 85 -75 0 -3 -35
-41 -77 -84 -116 -115 -440 -454 -569 -596 -16 -18 -49 -54 -74 -81 -163 -178
-231 -253 -266 -293 -21 -24 -46 -51 -54 -60 -8 -9 -44 -49 -80 -89 -36 -41
-70 -79 -75 -85 -6 -6 -39 -45 -75 -86 -36 -41 -69 -80 -75 -86 -5 -6 -37 -41
-69 -78 -63 -70 -62 -70 -131 -41 -354 148 -624 276 -835 395 -52 29 -112 63
-132 74 -20 12 -74 44 -120 71 -46 28 -87 52 -92 54 -12 5 -374 247 -451 302
-33 23 -114 83 -179 133 -65 50 -131 100 -145 111 -29 21 -289 239 -334 278
-135 120 -204 185 -352 332 -158 157 -195 197 -298 313 -41 47 -46 43 -18 -15
11 -21 62 -126 114 -233 120 -249 272 -524 412 -745 51 -82 189 -289 195 -295
3 -3 17 -21 30 -40 14 -19 28 -39 32 -45 5 -5 25 -32 45 -60 21 -27 41 -54 45
-60 126 -157 170 -211 217 -264 163 -189 363 -388 521 -521 29 -25 61 -52 70
-61 20 -19 213 -166 254 -194 16 -11 39 -27 52 -35 12 -8 53 -36 91 -61 80
-54 198 -125 266 -159 26 -14 47 -29 47 -35 -1 -9 -79 -103 -222 -267 -27 -31
-59 -70 -71 -85 -12 -15 -24 -30 -27 -33 -6 -6 -99 -116 -126 -149 -10 -13
-26 -31 -34 -40 -9 -9 -40 -45 -70 -81 -30 -35 -65 -76 -76 -90 -12 -14 -66
-77 -120 -140 -55 -64 -121 -142 -149 -175 -27 -33 -65 -77 -84 -97 -19 -21
-41 -48 -49 -60 -8 -13 -20 -27 -26 -33 -6 -5 -27 -32 -47 -60 -48 -67 -221
-309 -225 -313 -12 -15 -455 185 -659 298 -30 16 -81 44 -112 62 -88 48 -284
171 -423 266 -112 76 -387 277 -400 292 -3 4 -57 48 -120 100 -63 52 -117 96
-120 99 -3 3 -43 40 -90 81 -190 168 -443 422 -637 636 -73 82 -85 96 -133
154 -19 24 -58 70 -86 104 -28 34 -81 101 -118 151 -65 88 -66 88 -61 50 5
-36 28 -157 40 -210 105 -482 240 -813 533 -1305 64 -107 158 -246 212 -314
110 -138 323 -359 439 -456 80 -67 240 -191 291 -225 25 -16 47 -33 48 -37 2
-5 10 -8 18 -8 8 0 14 -4 14 -10 0 -5 5 -10 11 -10 6 0 25 -11 42 -24 107 -81
539 -315 712 -385 44 -18 84 -37 88 -41 5 -4 -28 -63 -72 -130 -45 -67 -81
-126 -81 -130 0 -5 -4 -10 -8 -12 -7 -3 -128 -185 -157 -236 -5 -10 -19 -31
-30 -47 -11 -17 -25 -39 -32 -50 -18 -30 -181 -288 -193 -305 -6 -8 -60 -96
-120 -195 -60 -99 -118 -193 -128 -210 -11 -16 -48 -78 -82 -137 -35 -60 -69
-108 -75 -108 -39 0 -331 88 -543 164 -317 114 -802 361 -1106 565 -38 25 -76
51 -85 56 -9 6 -18 12 -21 15 -3 3 -31 23 -63 44 -33 22 -91 64 -130 93 -40
29 -83 61 -96 70 -102 74 -387 314 -520 438 -149 139 -415 412 -511 525 -12
14 -31 36 -43 50 -12 13 -39 47 -60 74 -20 27 -37 47 -37 44 0 -7 64 -194 92
-268 11 -30 26 -71 34 -90 170 -456 407 -933 626 -1263 43 -65 78 -120 78
-123 0 -2 7 -12 15 -21 9 -10 55 -70 102 -133 47 -63 93 -122 102 -131 9 -9
36 -41 61 -72 52 -64 304 -315 369 -367 24 -19 60 -48 80 -65 21 -16 50 -39
65 -50 16 -11 34 -26 41 -32 8 -7 18 -13 23 -13 6 0 12 -3 14 -7 5 -13 257
-173 271 -173 3 0 28 -13 54 -28 132 -77 514 -218 648 -239 46 -7 50 -17 26
-72 -18 -42 -19 -54 -9 -71 20 -31 75 -48 143 -44 l60 4 1 -103 c0 -84 7 -162
14 -162 1 0 3 -11 6 -24 7 -39 56 -153 88 -206 39 -66 181 -244 340 -428 117
-137 136 -167 102 -167 -32 0 -367 -147 -459 -202 -26 -15 -54 -28 -62 -28 -8
0 -15 -3 -15 -8 0 -4 -17 -16 -37 -27 -33 -17 -211 -127 -238 -147 -80 -59
-231 -173 -235 -177 -3 -3 -32 -28 -65 -55 -95 -78 -342 -331 -436 -446 -127
-155 -339 -461 -339 -489 0 -5 -3 -11 -7 -13 -24 -10 -292 -557 -299 -608 0
-3 -7 -21 -16 -42 -9 -20 -42 -114 -73 -210 -31 -95 -65 -197 -75 -225 -10
-29 -16 -53 -14 -53 1 0 56 71 121 158 97 129 276 354 318 398 5 6 39 44 75
84 86 98 415 428 510 512 125 110 229 195 355 289 66 50 128 97 138 105 9 7
21 14 25 14 4 0 18 9 32 20 106 85 452 277 640 355 107 45 115 48 125 51 6 1
24 8 40 15 17 6 35 13 40 15 237 70 309 88 408 107 l119 22 82 -86 c44 -47
133 -141 196 -209 163 -174 184 -195 364 -384 88 -93 175 -184 191 -201 17
-17 42 -45 57 -61 l28 -30 -93 -39 c-50 -21 -99 -45 -108 -52 -8 -7 -20 -13
-26 -13 -5 0 -56 -25 -114 -57 -57 -31 -120 -64 -139 -75 -19 -10 -47 -26 -62
-36 -15 -9 -55 -35 -90 -57 -256 -160 -533 -395 -738 -625 -36 -40 -70 -78
-76 -84 -31 -33 -199 -264 -251 -346 -94 -148 -233 -410 -233 -441 0 -5 -4 -9
-10 -9 -5 0 -9 -3 -8 -7 1 -5 -4 -21 -11 -38 -97 -237 -178 -491 -206 -643 -2
-12 -6 -30 -9 -40 -3 -9 -7 -29 -10 -45 -3 -15 -7 -35 -10 -45 -2 -9 -7 -39
-10 -67 -5 -42 -4 -47 7 -31 93 141 398 539 457 596 3 3 18 21 34 40 118 144
497 534 642 660 141 123 147 127 209 178 369 300 755 520 1110 634 50 15 99
30 110 33 11 2 47 11 80 19 103 26 101 27 214 -91 57 -60 232 -240 390 -401
157 -162 287 -297 289 -301 1 -3 -34 -22 -78 -41 -44 -19 -80 -38 -80 -42 0
-5 -6 -8 -14 -8 -8 0 -43 -16 -78 -37 -34 -20 -86 -49 -114 -65 -29 -15 -57
-35 -64 -43 -7 -8 -17 -15 -23 -15 -10 0 -194 -129 -219 -153 -7 -7 -20 -18
-30 -23 -68 -38 -365 -333 -480 -476 -227 -282 -415 -617 -540 -963 -22 -60
-41 -114 -42 -120 -2 -5 -6 -17 -9 -25 -7 -19 -47 -150 -52 -170 -2 -8 -12
-51 -24 -95 -11 -44 -22 -91 -25 -105 -2 -14 -14 -72 -26 -130 -12 -58 -22
-112 -22 -120 0 -8 -4 -35 -8 -60 -5 -25 -12 -72 -15 -105 -4 -33 -9 -68 -11
-78 -1 -9 -1 -17 1 -17 3 0 85 139 85 145 0 2 37 63 81 137 45 73 91 149 103
168 11 19 24 40 29 45 4 6 27 39 50 75 111 171 377 528 465 625 10 11 49 56
87 100 463 538 993 917 1484 1064 l74 22 26 -25 c14 -14 96 -94 182 -178 132
-129 254 -246 404 -383 103 -94 193 -175 212 -191 27 -22 24 -26 -42 -78 -48
-38 -332 -319 -367 -363 -216 -276 -315 -433 -428 -688 -52 -115 -128 -339
-145 -425 -2 -8 -10 -42 -18 -75 -17 -68 -39 -198 -52 -310 -17 -141 -23 -479
-11 -585 2 -19 4 -44 5 -55 1 -16 43 67 55 110 5 17 18 46 58 134 21 46 38 90
38 97 0 8 5 14 10 14 6 0 10 5 10 11 0 13 155 324 189 379 11 19 26 47 32 62
6 16 15 28 19 28 5 0 12 9 15 20 6 19 24 49 119 202 82 129 222 320 349 473
88 106 342 351 432 417 6 4 24 18 40 31 42 33 153 107 160 107 3 0 19 10 35
21 l29 22 103 -85 c131 -107 381 -301 523 -406 61 -45 115 -86 121 -91 17 -14
263 -191 336 -241 l67 -47 -35 -39 c-144 -162 -305 -381 -403 -549 -29 -49
-57 -97 -62 -105 -15 -25 -99 -201 -126 -265 -88 -207 -158 -483 -179 -705
-13 -141 -5 -479 12 -530 3 -8 8 -37 10 -63 3 -27 9 -59 14 -73 6 -14 10 -38
10 -54 0 -39 16 -47 24 -12 33 139 121 418 179 567 17 44 32 82 32 85 2 7 12
31 65 155 73 170 196 409 266 518 24 37 44 70 44 73 0 3 5 10 10 17 6 7 45 60
88 118 153 211 329 386 488 487 43 27 55 31 75 22 26 -11 61 -32 69 -41 8 -9
582 -377 661 -423 20 -12 97 -59 173 -106 75 -47 144 -89 154 -95 133 -75 261
-159 255 -169 -4 -6 -32 -40 -63 -76 -123 -141 -257 -333 -347 -495 -71 -129
-165 -339 -192 -430 -7 -22 -16 -49 -21 -60 -9 -21 -48 -161 -56 -198 -2 -12
-7 -35 -11 -52 -9 -39 -8 -33 -17 -90 -25 -154 -28 -201 -30 -385 -1 -159 7
-307 19 -371 3 -13 7 -40 10 -59 3 -19 7 -46 10 -60 29 -143 40 -190 46 -190
4 0 10 24 14 53 4 28 9 59 10 67 2 8 7 29 10 45 11 59 37 171 52 225 8 30 17
63 19 72 2 10 6 27 9 38 6 22 15 60 19 75 2 11 9 32 57 185 18 58 34 107 34
110 1 3 7 18 13 33 7 16 12 31 12 35 0 23 138 345 206 479 164 324 353 572
566 741 l78 61 157 -90 c154 -88 248 -140 448 -246 115 -61 505 -254 613 -304
40 -18 71 -35 70 -38 -2 -4 -42 -85 -90 -181 -71 -144 -143 -315 -164 -390
-28 -98 -76 -288 -76 -300 0 -8 -4 -33 -8 -55 -41 -204 -43 -542 -4 -750 8
-44 16 -89 18 -100 16 -96 41 -179 42 -137 1 21 13 121 19 153 3 13 7 35 9 49
3 14 7 41 10 60 4 28 31 151 61 280 14 61 51 188 88 301 114 348 251 601 441
822 54 61 75 73 103 58 20 -10 139 -59 283 -116 52 -20 104 -41 115 -45 21 -9
225 -84 380 -141 140 -50 544 -182 705 -228 80 -24 152 -45 160 -48 19 -8 31
-11 50 -16 8 -2 35 -9 60 -16 25 -7 53 -15 62 -17 10 -2 26 -6 36 -9 46 -13
359 -96 377 -100 31 -6 53 -12 145 -35 47 -11 97 -23 112 -25 15 -2 44 -8 65
-14 40 -11 347 -77 398 -86 17 -2 41 -7 55 -10 14 -3 61 -12 105 -20 44 -8 94
-17 110 -20 26 -5 139 -24 230 -40 17 -3 46 -8 65 -12 19 -3 44 -7 55 -8 11
-1 54 -8 95 -15 41 -7 86 -14 100 -15 14 -2 41 -6 61 -9 20 -4 51 -8 70 -11
19 -2 70 -9 114 -15 77 -10 115 -15 200 -24 22 -3 54 -7 70 -10 17 -3 59 -7
95 -10 36 -4 76 -8 90 -10 14 -3 57 -7 95 -10 39 -4 81 -8 95 -10 14 -2 63 -7
110 -11 47 -3 103 -8 125 -10 22 -3 78 -7 125 -10 47 -3 112 -7 145 -10 98 -7
223 -15 330 -20 55 -2 168 -8 250 -12 196 -9 1328 -9 1515 1 80 4 190 9 245
11 110 5 251 13 495 30 76 5 206 15 260 20 25 2 79 7 120 10 41 3 93 8 115 10
22 3 69 7 105 10 35 3 76 7 90 10 14 2 57 6 95 9 39 4 87 9 108 12 21 3 57 7
80 9 23 2 60 6 82 9 49 7 116 15 175 21 44 5 104 13 145 21 11 2 45 6 75 9 30
4 62 8 71 11 17 5 59 12 114 19 17 2 44 6 60 10 17 3 44 8 60 11 17 3 93 19
170 35 77 16 154 32 170 35 17 3 55 12 85 19 30 8 66 16 80 19 20 4 164 41
335 86 378 99 1067 335 1460 500 39 16 168 70 289 120 120 50 226 95 235 100
22 12 151 70 156 70 3 0 33 13 67 29 146 66 439 202 518 239 140 65 448 212
655 312 72 35 195 94 275 133 80 38 206 99 280 134 74 36 167 80 205 98 39 18
113 53 165 78 125 59 211 98 523 241 127 58 175 80 247 114 41 20 77 36 80 37
3 1 46 21 95 44 50 24 122 58 160 76 39 18 137 65 218 104 82 39 150 71 152
71 2 0 73 33 158 74 85 41 178 84 208 97 30 12 60 27 68 33 7 5 18 11 25 12 6
1 54 22 106 47 52 25 169 77 260 117 91 39 179 78 195 85 17 7 71 30 120 50
50 20 109 45 132 56 23 10 45 19 48 19 4 0 21 6 38 14 18 8 73 30 122 49 81
32 299 124 350 147 11 5 40 18 65 29 47 20 175 79 345 159 143 67 985 492 995
502 3 3 61 34 130 69 69 35 154 79 190 98 36 20 193 101 350 181 157 79 299
152 315 160 17 9 32 17 35 17 3 1 73 34 155 74 179 87 273 131 340 161 184 80
270 140 366 260 165 203 210 503 113 744 -29 72 -29 74 -4 51 11 -10 20 -13
20 -7 0 10 -48 139 -70 187 -25 55 -142 363 -145 380 -2 11 -6 47 -10 80 -4
32 -8 62 -10 65 -2 3 -6 30 -9 61 -3 31 -11 80 -17 110 -6 30 -12 65 -15 79
-2 14 -11 61 -20 105 -9 44 -18 91 -20 104 -3 12 -12 53 -20 90 -9 36 -18 77
-21 91 -2 14 -20 90 -39 170 -20 80 -37 152 -39 160 -6 26 -95 363 -110 415
-8 28 -33 115 -55 195 -43 152 -54 189 -145 490 -88 290 -324 1026 -345 1075
-4 11 -11 29 -13 40 -3 11 -42 126 -87 255 -45 129 -85 246 -90 260 -19 60
-193 548 -240 675 -28 77 -58 160 -66 185 -8 25 -19 54 -24 65 -5 11 -39 101
-75 200 -164 441 -405 1040 -527 1305 -11 25 -37 83 -58 130 -57 129 -139 305
-224 480 -22 47 -41 87 -41 90 -1 3 -42 86 -92 185 -167 333 -305 592 -441
830 -76 133 -229 398 -246 425 -13 19 -60 96 -106 170 -104 168 -167 266 -289
449 -53 78 -100 150 -106 160 -5 9 -12 18 -15 21 -3 3 -48 66 -100 140 -89
129 -314 433 -407 550 -24 30 -47 60 -51 65 -25 32 -90 113 -104 130 -9 11
-51 63 -94 115 -69 84 -241 287 -269 316 -6 6 -35 39 -65 74 -68 77 -79 89
-265 285 -267 281 -457 466 -789 767 -34 30 -136 118 -376 322 -14 11 -43 34
-65 50 -22 17 -42 33 -45 36 -16 21 -468 362 -578 437 -18 13 -38 27 -45 33
-74 63 -894 610 -913 610 -3 0 -24 13 -47 28 -75 51 -434 264 -604 358 -154
86 -230 127 -368 199 -106 56 -369 188 -410 206 -11 5 -27 13 -35 19 -8 5 -40
20 -70 34 -30 13 -102 46 -160 74 -58 27 -139 64 -180 82 -41 18 -103 45 -138
61 -35 16 -98 43 -140 60 -42 17 -95 39 -117 49 -22 9 -119 47 -215 84 -96 37
-185 72 -197 77 -13 5 -33 13 -45 18 -13 5 -36 14 -53 19 -16 6 -95 34 -175
62 -80 29 -149 53 -155 54 -5 2 -17 6 -25 9 -54 21 -594 187 -659 202 -9 3
-74 20 -146 40 -132 37 -151 42 -182 49 -30 7 -107 26 -123 31 -8 2 -44 10
-80 18 -36 8 -127 29 -203 46 -76 17 -155 34 -175 37 -20 3 -40 8 -43 10 -4 2
-24 6 -45 9 -22 4 -46 8 -54 10 -34 10 -439 81 -520 91 -19 3 -46 7 -60 9 -41
8 -74 13 -240 35 -47 6 -96 13 -110 15 -14 2 -54 6 -90 10 -36 4 -76 8 -90 10
-14 2 -56 6 -95 10 -38 4 -83 8 -100 10 -46 5 -153 15 -220 20 -33 2 -100 7
-150 10 -49 4 -115 8 -145 10 -175 12 -444 18 -810 19 -510 0 -756 -10 -1240
-49 -41 -4 -97 -8 -125 -10 -27 -2 -50 -5 -50 -5 0 -1 -13 -3 -30 -4 -89 -8
-190 -18 -206 -21 -10 -2 -46 -7 -81 -10 -35 -4 -74 -9 -88 -10 -31 -4 -126
-16 -160 -20 -14 -2 -38 -5 -55 -8 -16 -3 -55 -9 -85 -12 -30 -4 -64 -9 -75
-11 -11 -2 -40 -7 -65 -10 -25 -3 -52 -7 -60 -9 -8 -2 -40 -7 -70 -10 -30 -4
-58 -9 -62 -11 -3 -2 -28 -7 -55 -10 -26 -3 -56 -7 -66 -10 -10 -3 -32 -7 -50
-10 -18 -2 -45 -6 -60 -10 -16 -3 -38 -7 -50 -9 -57 -7 -409 -77 -557 -110
-58 -13 -116 -26 -130 -28 -14 -3 -43 -10 -65 -15 -22 -6 -53 -13 -70 -16 -16
-3 -122 -28 -235 -57 -113 -28 -213 -52 -223 -54 -10 -2 -27 -7 -37 -10 -10
-3 -27 -8 -37 -10 -10 -2 -92 -25 -183 -50 -91 -25 -172 -48 -180 -50 -8 -2
-71 -20 -140 -40 -69 -21 -149 -44 -178 -53 l-53 -15 -197 199 c-168 170 -304
313 -379 400 -10 12 -46 52 -79 90 -61 68 -147 169 -214 253 -19 24 -40 48
-45 55 -107 118 -497 662 -607 846 l-27 45 5 -35z"/>
</g>
</svg>
